# xmcd CD database file
#
# Track frame offsets:
#	150
#	14704
#	25266
#	38182
#	47660
#	67216
#	83341
#	101018
#	119138
#	133117
#	149132
#	165022
#	184531
#	199456
#	221438
#
# Disc length: 3152 seconds
#
# Revision: 0
# Processed by: cddbd v1.5.2PL0 Copyright (c) Steve Scherf et al.
# Submitted via: CDex 1.70beta2
#
DISCID=de0c4e0f
DTITLE=Willie Nelson - The Music Of Willie Nelson CD 1
DYEAR=1900
DGENRE=Country
TTITLE0=Sweet Memories
TTITLE1=Blue Eyes Crying In The Rain
TTITLE2=Remember Me
TTITLE3=If You've Got The Money I've Got The Time
TTITLE4=Georgia On My Mind
TTITLE5=Blue Skies
TTITLE6=All Of Me
TTITLE7=Help Me Make It Through The Night
TTITLE8=My Heroes Have Always Been Cowboys
TTITLE9=Always On My Mind
TTITLE10=Let It Be Me
TTITLE11=Last Thing I Needed The First Thing This Morning
TTITLE12=Nothing I Can Do About It Now
TTITLE13=City Of New Orleans
TTITLE14=Living In The Promiseland
EXTD=
EXTT0=
EXTT1=
EXTT2=
EXTT3=
EXTT4=
EXTT5=
EXTT6=
EXTT7=
EXTT8=
EXTT9=
EXTT10=
EXTT11=
EXTT12=
EXTT13=
EXTT14=
PLAYORDER=
